<svg id="Слой_1" data-name="Слой 1" xmlns="http://www.w3.org/2000/svg" viewBox="0 0 268 268"><defs><style>.cls-1{fill:#43013c;}.cls-2{fill:#a701a3;}.cls-3{fill:#3e008c;}</style></defs><rect width="268" height="268"/><path class="cls-1" d="M594.64,482.27,716.11,518h89.56V334.33L689.32,292.48l24.5,39.5-42.15,11.64v78.6s1.43,16.34,1.3,16.72S594.64,482.27,594.64,482.27Z" transform="translate(-537.67 -250)"/><circle class="cls-2" cx="134" cy="94.63" r="55.04"/><path class="cls-3" d="M671.67,399.67a55,55,0,1,1,0-110.08" transform="translate(-537.67 -250)"/><path class="cls-2" d="M594.64,482.27a77,77,0,1,1,154.05,0" transform="translate(-537.67 -250)"/><path class="cls-3" d="M594.64,482.27a77,77,0,0,1,77-77v77" transform="translate(-537.67 -250)"/></svg>