<svg version="1.2" xmlns="http://www.w3.org/2000/svg" viewBox="0 0 382 106" width="382" height="106">
	<title>image</title>
	<defs>
		<linearGradient id="g1" x1="27.1" y1="56.7" x2="361.2" y2="56.7" gradientUnits="userSpaceOnUse">
			<stop offset="0" stop-color="#362d73"/>
			<stop offset=".3" stop-color="#603766"/>
			<stop offset=".7" stop-color="#8a4259"/>
			<stop offset="1" stop-color="#b44d4d"/>
		</linearGradient>
	</defs>
	<style>
		.s0 { opacity: 1;fill: #613867 } 
		.s1 { fill: url(#g1) } 
	</style>
	<path id="Path 0" fill-rule="evenodd" class="s0" d="m129.7 33c3.5 0 6.9 0.8 10 2.3 2.5 1.2 6.3 4 8.2 6.3 2 2.2 4.2 5.8 4.8 8 0.7 2.1 1.3 5.5 1.3 7.4 0 1.9-0.6 5.3-1.3 7.4-0.6 2.2-3 6-5.2 8.4-2.2 2.5-5.8 5.4-8 6.3-2.2 1-6.4 1.9-9.3 1.9-2.8 0-6.8-0.7-8.7-1.5-3.3-1.4-3.9-1.3-11.3 1.5-4.2 1.7-7.8 2.8-8 2.5-0.1-0.3 1.3-3.8 3.1-7.8 3.1-6.7 3.3-7.4 2-10.5-0.7-1.7-1.3-5.6-1.3-8.5 0-2.9 0.9-7 1.9-9.2 1-2.2 3.2-5.5 5-7.3 1.7-1.7 5-4.1 7.4-5.2 2.5-1.1 6.4-2 9.4-2zm-12.2 8.6c-1.7 1.2-4 4.2-5.3 6.7-1.2 2.6-2.2 6.5-2.2 8.7 0 2.2 0.7 5.6 1.5 7.5 1.4 3.2 1.3 3.8-0.4 7.8-1.1 2.3-1.8 4.3-1.5 4.4 0.2 0.2 2.3-0.4 4.6-1.3 4-1.5 4.6-1.5 8.8 0.1 3.1 1.2 5.9 1.5 9 1.1 2.5-0.3 6.4-1.8 8.7-3.4 2.4-1.5 5.1-4.3 6.2-6.2 1.1-1.9 2.2-5.1 2.6-7 0.4-1.9 0.1-5.5-0.5-8-0.8-2.9-2.7-5.9-5.4-8.6-2.4-2.5-5.8-4.6-8.1-5.3-2.2-0.6-4.9-1.1-6-1.1-1.1 0.1-3.6 0.6-5.5 1.3-1.9 0.7-4.9 2.2-6.5 3.3zm12.5 9.4c14.3 0 15 0.1 15 2 0 1.9-0.7 2-15 2-14.3 0-15-0.1-15-2 0-1.9 0.7-2 15-2zm5 8c9.3 0 10 0.1 10 2 0 1.9-0.7 2-10 2-9.3 0-10-0.1-10-2 0-1.9 0.7-2 10-2z"/>
	<path id="bl  gout" fill-rule="evenodd" class="s1" d="m27.1 81v-68.2h6.5v30.1q2.8-5.2 7.6-8.4 4.9-3.2 10.8-3.2 4.8 0 9 2 4.2 1.8 7.3 5.2 3.1 3.5 4.8 8 1.9 4.5 1.9 9.8 0 5.2-1.8 9.9-1.7 4.5-4.9 7.9-3.1 3.3-7.3 5.3-4.2 1.9-9 1.9-5.9 0-10.8-3.2-4.8-3.3-7.6-8.5v11.4zm24-4.9q3.6 0 6.7-1.6 3.2-1.5 5.5-4.2 2.4-2.7 3.8-6.3 1.4-3.7 1.4-7.7 0-4.1-1.4-7.7-1.4-3.7-3.8-6.3-2.3-2.8-5.5-4.3-3.1-1.5-6.7-1.6-3.6 0.1-6.8 1.6-3.2 1.5-5.6 4.3-2.3 2.6-3.8 6.3-1.3 3.6-1.3 7.7 0 4.4 1.4 8 1.6 3.6 4 6.3 2.4 2.6 5.5 4 3.2 1.5 6.6 1.5zm36.2-63.2h6.5v68.1h-6.5zm97.2 68.2q-4.8 0-9.1-2-4.3-2-7.5-5.3-3.2-3.4-5-7.9-1.9-4.6-1.9-9.7 0-5.1 1.9-9.6 1.8-4.5 5-7.8 3.2-3.5 7.5-5.4 4.3-2 9.1-2 5.9 0 10.5 3.1 4.7 3 7.4 8.1v-11.1h6.2v46.3q0 5.1-1.8 9.2-1.9 4.2-5.2 7.3-3.2 3-7.5 4.7-4.3 1.7-9.1 1.7-4 0-7.4-1.1-3.4-1.1-6.3-3-2.7-1.9-4.8-4.4-2.1-2.5-3.4-5.4l6.6-0.9q2.1 4.2 6 6.5 4.1 2.3 9.1 2.3 3.9 0 7.1-1.3 3.3-1.3 5.6-3.6 2.3-2.3 3.5-5.3 1.4-3.1 1.4-6.4v-8.2q-2.7 5-7.4 8.1-4.6 3.1-10.5 3.1zm-17-24.9q0 4 1.3 7.6 1.4 3.6 3.7 6.3 2.4 2.6 5.5 4.3 3.2 1.5 6.9 1.5 3.6 0 6.7-1.4 3.2-1.5 5.6-4.2 2.4-2.6 3.7-6.1 1.5-3.7 1.5-8 0-4.1-1.5-7.7-1.3-3.6-3.7-6.2-2.4-2.7-5.6-4.2-3.1-1.5-6.7-1.5-3.6 0-6.7 1.5-3.2 1.5-5.7 4.3-2.3 2.6-3.7 6.3-1.3 3.5-1.3 7.5zm76.1 25.1q-4.9 0-9.3-2-4.4-1.9-7.7-5.3-3.2-3.5-5.1-8-1.9-4.6-1.9-9.8 0-5.1 1.9-9.6 1.9-4.7 5.1-8.1 3.3-3.4 7.7-5.4 4.4-1.9 9.3-1.9 5 0 9.2 1.9 4.4 2 7.7 5.4 3.3 3.4 5.2 8.1 1.9 4.5 1.9 9.6 0 5.2-1.9 9.8-1.9 4.5-5.2 8-3.3 3.4-7.7 5.3-4.2 2-9.2 2zm0-44.5q-3.6 0-6.8 1.5-3.2 1.6-5.6 4.2-2.3 2.6-3.8 6.2-1.3 3.5-1.3 7.5 0 4.1 1.3 7.6 1.5 3.6 3.8 6.2 2.4 2.6 5.6 4.2 3.2 1.5 6.8 1.5 3.6 0 6.8-1.5 3.2-1.6 5.6-4.2 2.5-2.6 3.8-6.2 1.4-3.5 1.4-7.6 0-4-1.4-7.5-1.5-3.7-3.9-6.3-2.3-2.7-5.5-4.1-3.2-1.5-6.8-1.5zm35.9 24v-29.3h6.5v29.5q0 3.1 1.1 5.8 1.1 2.6 3 4.7 2 2 4.7 3.2 2.7 1.1 5.8 1.1 3.4 0 6.3-1.3 2.8-1.3 4.8-3.4 2.1-2.2 3.2-4.8 1.1-2.8 1.1-5.5v-29.3h6.5v49.5h-6.5v-8.7q-2.5 4-6.8 6.5-4.2 2.5-9.5 2.5-4.4 0-8.1-1.6-3.8-1.7-6.5-4.4-2.7-2.9-4.2-6.6-1.4-3.8-1.4-7.9zm54.3-24.1v-5.2h6.6v-11.9h6.5v11.9h14v5.2h-14v27.7q0 4.7 3.1 7.7 3.2 2.8 7.6 2.8 1.5 0 2.2-0.2l1.4 5.7q-0.3 0.1-1.5 0.4-1.3 0.2-2.6 0.2-3.6 0-6.7-1.2-3.1-1.2-5.3-3.3-2.2-2.2-3.5-5.3-1.2-3.1-1.2-6.7v-27.8z"/>
</svg>