<svg id="Слой_1" data-name="Слой 1" xmlns="http://www.w3.org/2000/svg" viewBox="0 0 268 268"><defs><style>.cls-1{fill:#43013c;}.cls-2{fill:#a701a3;}.cls-3{fill:#3e008c;}</style></defs><rect width="268" height="268"/><path class="cls-1" d="M674.77,479.54,716.11,518h89.56V334.33L757.5,306.85,713.82,332l-57,12.63,14.3,77.45s1.94,16.5,1.81,16.88S674.77,479.54,674.77,479.54Z" transform="translate(-537.67 -250)"/><path class="cls-2" d="M674.51,298a48.66,48.66,0,0,1,38.79,15.6,68.35,68.35,0,0,0,44.2-6.71c.21,1.61,1.72,15-8.5,25.39-10.56,10.71-24.55,9-26,8.76a24.11,24.11,0,0,1,6.41,9.66,25.5,25.5,0,0,1,1.19,9.8,79,79,0,0,1-3.87,21.78,21,21,0,0,0-1.8-5c-1.32-2.59-2-3.89-2.58-3.87-2.37.08.69,20.8-6.83,34-4.28,7.54-14.31,16.67-41,19.85" transform="translate(-537.67 -250)"/><path class="cls-3" d="M674.51,298a48.66,48.66,0,0,0-38.78,15.6,68.39,68.39,0,0,1-44.21-6.71c-.21,1.61-1.72,15,8.51,25.39,10.56,10.71,24.54,9,26,8.76a24.11,24.11,0,0,0-6.41,9.66,25.5,25.5,0,0,0-1.19,9.8,79.26,79.26,0,0,0,3.86,21.78,21.13,21.13,0,0,1,1.81-5c1.31-2.59,2-3.89,2.57-3.87,2.38.08-.68,20.8,6.83,34,4.29,7.54,14.31,16.67,41,19.85" transform="translate(-537.67 -250)"/><path class="cls-3" d="M669.66,424.72a48.34,48.34,0,0,1-20.79,13.58c-4,1.26-6.11,1.32-7,2.92-2.05,3.52,2.65,12.81,32.69,38.32l.13-56.53" transform="translate(-537.67 -250)"/><path class="cls-2" d="M679.63,424.72a48.28,48.28,0,0,0,20.79,13.58c4,1.26,6.11,1.32,7,2.92,2,3.52-2.65,12.81-32.69,38.32L674.64,423" transform="translate(-537.67 -250)"/></svg>